# xmcd
#
# Track frame offsets:
#	150
#	14937
#	41675
#
# Disc length: 944 seconds
#
# Revision: 1
# Processed by: cddbd v1.5.2PL0 Copyright (c) Steve Scherf et al.
# Submitted via: EasyCDDAExtractor 11.0.2.1
#
DISCID=2403ae03
DTITLE=Successo ft. Frank Naples - Ma Quale Idea (2005)
DYEAR=2005
DGENRE=Dance
TTITLE0=Ma Quale Idea (Radio Version)
TTITLE1=Ma Quale Idea (Discostomp Mix)
TTITLE2=Give It All 2 Me
EXTD=
EXTT0=
EXTT1=
EXTT2=
PLAYORDER=
